<svg width="148" height="40" viewBox="0 0 148 40" fill="none" xmlns="http://www.w3.org/2000/svg">
<path d="M44.282 31.2941H52.9626V39.9758H44.282V31.5871H35.6003V22.9064H44.282V31.2941Z" fill="#423ADC"/>
<path d="M35.6003 0.0812321C24.1958 0.0812321 17.0671 8.63614 17.0671 20.0406C17.0671 31.4451 24.1958 40.0001 35.6003 40.0001H41.3026V34.2978H35.6003C28.4717 34.2978 22.7694 28.5956 22.7694 20.0406C22.7694 11.4857 28.4717 5.78348 35.6003 5.78348C42.729 5.78348 48.4313 11.4857 48.4313 20.0406C48.4313 24.3166 47.0049 28.5956 47.0049 28.5956H52.7072C52.7072 28.5956 54.1336 24.3166 54.1336 20.0406C54.1336 8.63614 47.0049 0.0812321 35.6003 0.0812321Z" fill="white"/>
<path d="M71.501 11.4609C80.0623 11.4612 85.7695 17.1691 85.7695 25.7305C85.7695 34.2918 80.0623 39.9998 71.501 40C62.9394 40 57.2315 34.292 57.2314 25.7305C57.2314 17.169 62.9394 11.4609 71.501 11.4609ZM95.2461 22.877C95.2461 15.7424 99.5267 11.4609 105.234 11.4609C110.942 11.461 115.223 15.7424 115.223 22.877V40H109.515V25.7305C109.515 20.023 106.661 17.1691 102.381 17.1689C98.1001 17.1689 95.2461 20.0228 95.2461 25.7305V40H89.5381V11.4609H95.2461V22.877ZM11.415 11.415V34.2451H17.123V39.9531H0V34.2451H5.70801V17.123H0V11.415H11.415ZM133.346 11.3848C141.907 11.3848 147.615 17.092 147.615 25.6533C147.615 34.2148 141.907 39.9228 133.346 39.9229C124.784 39.9229 119.076 34.2148 119.076 25.6533C119.076 17.092 124.784 11.3848 133.346 11.3848ZM71.501 17.1689C67.2202 17.1689 62.9385 20.0228 62.9385 25.7305C62.9385 31.4381 67.2202 34.292 71.501 34.292C75.7816 34.2918 80.0625 31.4379 80.0625 25.7305C80.0625 20.023 75.7816 17.1692 71.501 17.1689ZM133.346 17.0918C129.065 17.0918 124.784 19.9458 124.784 25.6533C124.784 31.361 129.065 34.2148 133.346 34.2148C137.626 34.2148 141.907 31.361 141.907 25.6533C141.907 19.9458 137.626 17.0918 133.346 17.0918Z" fill="white"/>
<path d="M5.7041 0V5.70762H11.4148V0H5.7041Z" fill="#423ADC"/>
</svg>
