<svg width="246" height="265" viewBox="0 0 246 265" fill="none" xmlns="http://www.w3.org/2000/svg">
<path d="M180.093 207.777L236.58 207.761L236.539 264.248L180.052 264.264L180.093 207.777Z" fill="#423ADC"/>
<path d="M123.606 153.055L180.093 153.04L180.052 209.527L123.565 209.542L123.606 153.055Z" fill="#423ADC"/>
<path d="M122.683 0C47.1888 0 0 56.6306 0 132.124C0 207.618 47.1888 264.249 122.683 264.249H160.43V226.502H122.683C75.4939 226.502 37.7469 188.755 37.7469 132.124C37.7469 75.4939 75.4939 37.7469 122.683 37.7469C169.871 37.7469 207.618 75.4939 207.618 132.124C207.618 160.43 198.176 188.755 198.176 188.755H235.923C235.923 188.755 245.365 160.43 245.365 132.124C245.365 56.6306 198.176 0 122.683 0Z" fill="black"/>
</svg>
